# xmcd CD database file
#
# Track frame offsets:
#	150
#	21007
#	34172
#	47649
#	66022
#	80943
#	98232
#	112463
#	128122
#	143893
#	161921
#
# Disc length: 2378 seconds
#
# Revision: 2
# Processed by: cddbd v1.5.2PL0 Copyright (c) Steve Scherf et al.
# Submitted via: CDex 2.21
#
DISCID=a009480b
DTITLE=Tracy Lawrence - Headlights, Taillights and Radio
DYEAR=2013
DGENRE=Country
TTITLE0=Footprints on the Moon
TTITLE1=Stop Drop and Roll
TTITLE2=Where I Used to Live
TTITLE3=Lie
TTITLE4=Black Top
TTITLE5=Good Girl
TTITLE6=Cecil's Palace
TTITLE7=Cloud of Dust
TTITLE8=The Other Side of 35
TTITLE9=Saving Savannah
TTITLE10=Butterfly
EXTD=YEAR: 2013
EXTT0=
EXTT1=
EXTT2=
EXTT3=
EXTT4=
EXTT5=
EXTT6=
EXTT7=
EXTT8=
EXTT9=
EXTT10=
PLAYORDER=
